# xmcd
#
# Track frame offsets:
#	150
#	21695
#	39120
#	58057
#	76702
#	99237
#	118397
#	139160
#	166237
#	183015
#	201302
#	221912
#	242445
#	261427
#	278495
#	294820
#	311427
#
# Disc length: 4399
#
# Revision: 3
# Processed by: cddbd v1.5.1PL0 Copyright (c) Steve Scherf et al.
# Submitted via: dBpowerAMP V4.0
# Normalized: r2:TSWAP
#
DISCID=ed112d11
DTITLE=Various Artist - Nu Flava
DYEAR=1900
DGENRE=blues
TTITLE0=NAS - If I Ruled The World
TTITLE1=Bones Thugs-N-Harmony - Tha Crossroads
TTITLE2=Kino Watson - Bring It On
TTITLE3=Puff Johnson - Forever More
TTITLE4=Tevin Campbell - Back To The World
TTITLE5=Keith Sweat - Twisted
TTITLE6=Primitive Radio Gods - Standing Outside a Broken Phone Booth With Money In My Hand
TTITLE7=Natalie Merchant - Carnival
TTITLE8=Strawpeople - Taller Than God
TTITLE9=Jewel - Who Will Save You're Soul
TTITLE10=Amanda Marshall - Let It Rain
TTITLE11=Tracy Chapman - Give Me One Reason
TTITLE12=Ghost Town DJ's - My Boo
TTITLE13=Kris Kross - Live And Die For Hip Hop
TTITLE14=B.G. The Prince Of Rap - Stomp
TTITLE15=Suggs - Cecilia
TTITLE16=Quad City DJ's - C'mon N' Ride It (The Train)
EXTD=
EXTT0=
EXTT1=
EXTT2=
EXTT3=
EXTT4=
EXTT5=
EXTT6=
EXTT7=
EXTT8=
EXTT9=
EXTT10=
EXTT11=
EXTT12=
EXTT13=
EXTT14=
EXTT15=
EXTT16=
PLAYORDER=
